<svg id="visual" viewBox="0 0 900 600" width="900" height="600" xmlns="http://www.w3.org/2000/svg" xmlns:xlink="http://www.w3.org/1999/xlink" version="1.1"><rect x="0" y="0" width="900" height="600" fill="#411125"></rect><path d="M0 59L9.3 59C18.7 59 37.3 59 56.2 59C75 59 94 59 112.8 59C131.7 59 150.3 59 169 59C187.7 59 206.3 59 225 59C243.7 59 262.3 59 281.2 59C300 59 319 59 337.8 59C356.7 59 375.3 59 394 59C412.7 59 431.3 59 450 59C468.7 59 487.3 59 506.2 59C525 59 544 59 562.8 59C581.7 59 600.3 59 619 59C637.7 59 656.3 59 675 59C693.7 59 712.3 59 731.2 59C750 59 769 59 787.8 59C806.7 59 825.3 59 844 59C862.7 59 881.3 59 890.7 59L900 59L900 0L890.7 0C881.3 0 862.7 0 844 0C825.3 0 806.7 0 787.8 0C769 0 750 0 731.2 0C712.3 0 693.7 0 675 0C656.3 0 637.7 0 619 0C600.3 0 581.7 0 562.8 0C544 0 525 0 506.2 0C487.3 0 468.7 0 450 0C431.3 0 412.7 0 394 0C375.3 0 356.7 0 337.8 0C319 0 300 0 281.2 0C262.3 0 243.7 0 225 0C206.3 0 187.7 0 169 0C150.3 0 131.7 0 112.8 0C94 0 75 0 56.2 0C37.3 0 18.7 0 9.3 0L0 0Z" fill="#890c41"></path><path d="M0 54L9.3 54C18.7 54 37.3 54 56.2 54C75 54 94 54 112.8 54C131.7 54 150.3 54 169 54C187.7 54 206.3 54 225 54C243.7 54 262.3 54 281.2 54C300 54 319 54 337.8 54C356.7 54 375.3 54 394 54C412.7 54 431.3 54 450 54C468.7 54 487.3 54 506.2 54C525 54 544 54 562.8 54C581.7 54 600.3 54 619 54C637.7 54 656.3 54 675 54C693.7 54 712.3 54 731.2 54C750 54 769 54 787.8 54C806.7 54 825.3 54 844 54C862.7 54 881.3 54 890.7 54L900 54L900 0L890.7 0C881.3 0 862.7 0 844 0C825.3 0 806.7 0 787.8 0C769 0 750 0 731.2 0C712.3 0 693.7 0 675 0C656.3 0 637.7 0 619 0C600.3 0 581.7 0 562.8 0C544 0 525 0 506.2 0C487.3 0 468.7 0 450 0C431.3 0 412.7 0 394 0C375.3 0 356.7 0 337.8 0C319 0 300 0 281.2 0C262.3 0 243.7 0 225 0C206.3 0 187.7 0 169 0C150.3 0 131.7 0 112.8 0C94 0 75 0 56.2 0C37.3 0 18.7 0 9.3 0L0 0Z" fill="#7b0f39"></path><path d="M0 48L9.3 48C18.7 48 37.3 48 56.2 48C75 48 94 48 112.8 48C131.7 48 150.3 48 169 48C187.7 48 206.3 48 225 48C243.7 48 262.3 48 281.2 48C300 48 319 48 337.8 48C356.7 48 375.3 48 394 48C412.7 48 431.3 48 450 48C468.7 48 487.3 48 506.2 48C525 48 544 48 562.8 48C581.7 48 600.3 48 619 48C637.7 48 656.3 48 675 48C693.7 48 712.3 48 731.2 48C750 48 769 48 787.8 48C806.7 48 825.3 48 844 48C862.7 48 881.3 48 890.7 48L900 48L900 0L890.7 0C881.3 0 862.7 0 844 0C825.3 0 806.7 0 787.8 0C769 0 750 0 731.2 0C712.3 0 693.7 0 675 0C656.3 0 637.7 0 619 0C600.3 0 581.7 0 562.8 0C544 0 525 0 506.2 0C487.3 0 468.7 0 450 0C431.3 0 412.7 0 394 0C375.3 0 356.7 0 337.8 0C319 0 300 0 281.2 0C262.3 0 243.7 0 225 0C206.3 0 187.7 0 169 0C150.3 0 131.7 0 112.8 0C94 0 75 0 56.2 0C37.3 0 18.7 0 9.3 0L0 0Z" fill="#6e1031"></path><path d="M0 43L9.3 43C18.7 43 37.3 43 56.2 43C75 43 94 43 112.8 43C131.7 43 150.3 43 169 43C187.7 43 206.3 43 225 43C243.7 43 262.3 43 281.2 43C300 43 319 43 337.8 43C356.7 43 375.3 43 394 43C412.7 43 431.3 43 450 43C468.7 43 487.3 43 506.2 43C525 43 544 43 562.8 43C581.7 43 600.3 43 619 43C637.7 43 656.3 43 675 43C693.7 43 712.3 43 731.2 43C750 43 769 43 787.8 43C806.7 43 825.3 43 844 43C862.7 43 881.3 43 890.7 43L900 43L900 0L890.7 0C881.3 0 862.7 0 844 0C825.3 0 806.7 0 787.8 0C769 0 750 0 731.2 0C712.3 0 693.7 0 675 0C656.3 0 637.7 0 619 0C600.3 0 581.7 0 562.8 0C544 0 525 0 506.2 0C487.3 0 468.7 0 450 0C431.3 0 412.7 0 394 0C375.3 0 356.7 0 337.8 0C319 0 300 0 281.2 0C262.3 0 243.7 0 225 0C206.3 0 187.7 0 169 0C150.3 0 131.7 0 112.8 0C94 0 75 0 56.2 0C37.3 0 18.7 0 9.3 0L0 0Z" fill="#60112a"></path><path d="M0 37L9.3 37C18.7 37 37.3 37 56.2 37C75 37 94 37 112.8 37C131.7 37 150.3 37 169 37C187.7 37 206.3 37 225 37C243.7 37 262.3 37 281.2 37C300 37 319 37 337.8 37C356.7 37 375.3 37 394 37C412.7 37 431.3 37 450 37C468.7 37 487.3 37 506.2 37C525 37 544 37 562.8 37C581.7 37 600.3 37 619 37C637.7 37 656.3 37 675 37C693.7 37 712.3 37 731.2 37C750 37 769 37 787.8 37C806.7 37 825.3 37 844 37C862.7 37 881.3 37 890.7 37L900 37L900 0L890.7 0C881.3 0 862.7 0 844 0C825.3 0 806.7 0 787.8 0C769 0 750 0 731.2 0C712.3 0 693.7 0 675 0C656.3 0 637.7 0 619 0C600.3 0 581.7 0 562.8 0C544 0 525 0 506.2 0C487.3 0 468.7 0 450 0C431.3 0 412.7 0 394 0C375.3 0 356.7 0 337.8 0C319 0 300 0 281.2 0C262.3 0 243.7 0 225 0C206.3 0 187.7 0 169 0C150.3 0 131.7 0 112.8 0C94 0 75 0 56.2 0C37.3 0 18.7 0 9.3 0L0 0Z" fill="#531123"></path><path d="M0 32L9.3 32C18.7 32 37.3 32 56.2 32C75 32 94 32 112.8 32C131.7 32 150.3 32 169 32C187.7 32 206.3 32 225 32C243.7 32 262.3 32 281.2 32C300 32 319 32 337.8 32C356.7 32 375.3 32 394 32C412.7 32 431.3 32 450 32C468.7 32 487.3 32 506.2 32C525 32 544 32 562.8 32C581.7 32 600.3 32 619 32C637.7 32 656.3 32 675 32C693.7 32 712.3 32 731.2 32C750 32 769 32 787.8 32C806.7 32 825.3 32 844 32C862.7 32 881.3 32 890.7 32L900 32L900 0L890.7 0C881.3 0 862.7 0 844 0C825.3 0 806.7 0 787.8 0C769 0 750 0 731.2 0C712.3 0 693.7 0 675 0C656.3 0 637.7 0 619 0C600.3 0 581.7 0 562.8 0C544 0 525 0 506.2 0C487.3 0 468.7 0 450 0C431.3 0 412.7 0 394 0C375.3 0 356.7 0 337.8 0C319 0 300 0 281.2 0C262.3 0 243.7 0 225 0C206.3 0 187.7 0 169 0C150.3 0 131.7 0 112.8 0C94 0 75 0 56.2 0C37.3 0 18.7 0 9.3 0L0 0Z" fill="#47111d"></path><path d="M0 26L9.3 26C18.7 26 37.3 26 56.2 26C75 26 94 26 112.8 26C131.7 26 150.3 26 169 26C187.7 26 206.3 26 225 26C243.7 26 262.3 26 281.2 26C300 26 319 26 337.8 26C356.7 26 375.3 26 394 26C412.7 26 431.3 26 450 26C468.7 26 487.3 26 506.2 26C525 26 544 26 562.8 26C581.7 26 600.3 26 619 26C637.7 26 656.3 26 675 26C693.7 26 712.3 26 731.2 26C750 26 769 26 787.8 26C806.7 26 825.3 26 844 26C862.7 26 881.3 26 890.7 26L900 26L900 0L890.7 0C881.3 0 862.7 0 844 0C825.3 0 806.7 0 787.8 0C769 0 750 0 731.2 0C712.3 0 693.7 0 675 0C656.3 0 637.7 0 619 0C600.3 0 581.7 0 562.8 0C544 0 525 0 506.2 0C487.3 0 468.7 0 450 0C431.3 0 412.7 0 394 0C375.3 0 356.7 0 337.8 0C319 0 300 0 281.2 0C262.3 0 243.7 0 225 0C206.3 0 187.7 0 169 0C150.3 0 131.7 0 112.8 0C94 0 75 0 56.2 0C37.3 0 18.7 0 9.3 0L0 0Z" fill="#3a0f17"></path><path d="M0 21L9.3 21C18.7 21 37.3 21 56.2 21C75 21 94 21 112.8 21C131.7 21 150.3 21 169 21C187.7 21 206.3 21 225 21C243.7 21 262.3 21 281.2 21C300 21 319 21 337.8 21C356.7 21 375.3 21 394 21C412.7 21 431.3 21 450 21C468.7 21 487.3 21 506.2 21C525 21 544 21 562.8 21C581.7 21 600.3 21 619 21C637.7 21 656.3 21 675 21C693.7 21 712.3 21 731.2 21C750 21 769 21 787.8 21C806.7 21 825.3 21 844 21C862.7 21 881.3 21 890.7 21L900 21L900 0L890.7 0C881.3 0 862.7 0 844 0C825.3 0 806.7 0 787.8 0C769 0 750 0 731.2 0C712.3 0 693.7 0 675 0C656.3 0 637.7 0 619 0C600.3 0 581.7 0 562.8 0C544 0 525 0 506.2 0C487.3 0 468.7 0 450 0C431.3 0 412.7 0 394 0C375.3 0 356.7 0 337.8 0C319 0 300 0 281.2 0C262.3 0 243.7 0 225 0C206.3 0 187.7 0 169 0C150.3 0 131.7 0 112.8 0C94 0 75 0 56.2 0C37.3 0 18.7 0 9.3 0L0 0Z" fill="#2e0e12"></path><path d="M0 15L9.3 15C18.7 15 37.3 15 56.2 15C75 15 94 15 112.8 15C131.7 15 150.3 15 169 15C187.7 15 206.3 15 225 15C243.7 15 262.3 15 281.2 15C300 15 319 15 337.8 15C356.7 15 375.3 15 394 15C412.7 15 431.3 15 450 15C468.7 15 487.3 15 506.2 15C525 15 544 15 562.8 15C581.7 15 600.3 15 619 15C637.7 15 656.3 15 675 15C693.7 15 712.3 15 731.2 15C750 15 769 15 787.8 15C806.7 15 825.3 15 844 15C862.7 15 881.3 15 890.7 15L900 15L900 0L890.7 0C881.3 0 862.7 0 844 0C825.3 0 806.7 0 787.8 0C769 0 750 0 731.2 0C712.3 0 693.7 0 675 0C656.3 0 637.7 0 619 0C600.3 0 581.7 0 562.8 0C544 0 525 0 506.2 0C487.3 0 468.7 0 450 0C431.3 0 412.7 0 394 0C375.3 0 356.7 0 337.8 0C319 0 300 0 281.2 0C262.3 0 243.7 0 225 0C206.3 0 187.7 0 169 0C150.3 0 131.7 0 112.8 0C94 0 75 0 56.2 0C37.3 0 18.7 0 9.3 0L0 0Z" fill="#23090a"></path><path d="M0 10L9.3 10C18.7 10 37.3 10 56.2 10C75 10 94 10 112.8 10C131.7 10 150.3 10 169 10C187.7 10 206.3 10 225 10C243.7 10 262.3 10 281.2 10C300 10 319 10 337.8 10C356.7 10 375.3 10 394 10C412.7 10 431.3 10 450 10C468.7 10 487.3 10 506.2 10C525 10 544 10 562.8 10C581.7 10 600.3 10 619 10C637.7 10 656.3 10 675 10C693.7 10 712.3 10 731.2 10C750 10 769 10 787.8 10C806.7 10 825.3 10 844 10C862.7 10 881.3 10 890.7 10L900 10L900 0L890.7 0C881.3 0 862.7 0 844 0C825.3 0 806.7 0 787.8 0C769 0 750 0 731.2 0C712.3 0 693.7 0 675 0C656.3 0 637.7 0 619 0C600.3 0 581.7 0 562.8 0C544 0 525 0 506.2 0C487.3 0 468.7 0 450 0C431.3 0 412.7 0 394 0C375.3 0 356.7 0 337.8 0C319 0 300 0 281.2 0C262.3 0 243.7 0 225 0C206.3 0 187.7 0 169 0C150.3 0 131.7 0 112.8 0C94 0 75 0 56.2 0C37.3 0 18.7 0 9.3 0L0 0Z" fill="#190202"></path></svg>