<!--?xml version="1.0" standalone="no"?-->              <svg id="sw-js-blob-svg" viewBox="0 0 100 100" xmlns="http://www.w3.org/2000/svg">                    <defs>                         <linearGradient id="sw-gradient" x1="0" x2="1" y1="1" y2="0">                            <stop id="stop1" stop-color="rgba(226.611, 79.799, 10.315, 1)" offset="0%"></stop>                            <stop id="stop2" stop-color="rgba(235.718, 105.81, 16.053, 1)" offset="100%"></stop>                        </linearGradient>                    </defs>                <path fill="url(#sw-gradient)" d="M18.7,-19.4C23,-18.6,24.6,-11.6,26.9,-4C29.1,3.6,32,11.9,29.3,17.5C26.7,23.1,18.7,26.1,12.2,24.6C5.7,23.1,0.8,17.1,-2.5,13.2C-5.8,9.2,-7.5,7.3,-10.8,4.8C-14,2.2,-18.7,-1,-21.3,-6.8C-23.9,-12.7,-24.4,-21.2,-20.6,-22.1C-16.7,-23,-8.3,-16.1,-0.6,-15.4C7.2,-14.7,14.3,-20.1,18.7,-19.4Z" width="100%" height="100%" transform="translate(50 50)" stroke-width="0" style="transition: 0.3s;" stroke="url(#sw-gradient)"></path>              </svg>