<svg id="visual" viewBox="0 0 900 600" width="900" height="600" xmlns="http://www.w3.org/2000/svg" xmlns:xlink="http://www.w3.org/1999/xlink" version="1.1"><rect x="0" y="0" width="900" height="600" fill="#411125"></rect><path d="M0 173L21.5 181.5C43 190 86 207 128.8 218.2C171.7 229.3 214.3 234.7 257.2 235.3C300 236 343 232 385.8 223C428.7 214 471.3 200 514.2 203C557 206 600 226 642.8 229.7C685.7 233.3 728.3 220.7 771.2 209.8C814 199 857 190 878.5 185.5L900 181L900 0L878.5 0C857 0 814 0 771.2 0C728.3 0 685.7 0 642.8 0C600 0 557 0 514.2 0C471.3 0 428.7 0 385.8 0C343 0 300 0 257.2 0C214.3 0 171.7 0 128.8 0C86 0 43 0 21.5 0L0 0Z" fill="#890c41"></path><path d="M0 170L21.5 175.5C43 181 86 192 128.8 186.7C171.7 181.3 214.3 159.7 257.2 159.2C300 158.7 343 179.3 385.8 177.3C428.7 175.3 471.3 150.7 514.2 139.7C557 128.7 600 131.3 642.8 133.7C685.7 136 728.3 138 771.2 147C814 156 857 172 878.5 180L900 188L900 0L878.5 0C857 0 814 0 771.2 0C728.3 0 685.7 0 642.8 0C600 0 557 0 514.2 0C471.3 0 428.7 0 385.8 0C343 0 300 0 257.2 0C214.3 0 171.7 0 128.8 0C86 0 43 0 21.5 0L0 0Z" fill="#6a112f"></path><path d="M0 98L21.5 97.7C43 97.3 86 96.7 128.8 96.8C171.7 97 214.3 98 257.2 99.2C300 100.3 343 101.7 385.8 106.8C428.7 112 471.3 121 514.2 127.7C557 134.3 600 138.7 642.8 141.8C685.7 145 728.3 147 771.2 141C814 135 857 121 878.5 114L900 107L900 0L878.5 0C857 0 814 0 771.2 0C728.3 0 685.7 0 642.8 0C600 0 557 0 514.2 0C471.3 0 428.7 0 385.8 0C343 0 300 0 257.2 0C214.3 0 171.7 0 128.8 0C86 0 43 0 21.5 0L0 0Z" fill="#4d1120"></path><path d="M0 96L21.5 97.7C43 99.3 86 102.7 128.8 102.3C171.7 102 214.3 98 257.2 99.5C300 101 343 108 385.8 103C428.7 98 471.3 81 514.2 80.8C557 80.7 600 97.3 642.8 101.5C685.7 105.7 728.3 97.3 771.2 96.2C814 95 857 101 878.5 104L900 107L900 0L878.5 0C857 0 814 0 771.2 0C728.3 0 685.7 0 642.8 0C600 0 557 0 514.2 0C471.3 0 428.7 0 385.8 0C343 0 300 0 257.2 0C214.3 0 171.7 0 128.8 0C86 0 43 0 21.5 0L0 0Z" fill="#310e13"></path><path d="M0 30L21.5 36.5C43 43 86 56 128.8 59.3C171.7 62.7 214.3 56.3 257.2 51.2C300 46 343 42 385.8 43.2C428.7 44.3 471.3 50.7 514.2 50.2C557 49.7 600 42.3 642.8 40.7C685.7 39 728.3 43 771.2 47.5C814 52 857 57 878.5 59.5L900 62L900 0L878.5 0C857 0 814 0 771.2 0C728.3 0 685.7 0 642.8 0C600 0 557 0 514.2 0C471.3 0 428.7 0 385.8 0C343 0 300 0 257.2 0C214.3 0 171.7 0 128.8 0C86 0 43 0 21.5 0L0 0Z" fill="#190202"></path></svg>