<svg xmlns="http://www.w3.org/2000/svg" viewBox="0 0 64 64" id="outdoor"><path fill="#f4f1de" d="m60 63-2-4V45h5l-3 18z"></path><path fill="#81b29a" d="M47 59v-1a2 2 0 0 1 2-2h4a2 2 0 0 1 2 2v1"></path><path fill="#f2cc8f" d="M39 45h24l-4-4H43l-4 4z"></path><path fill="#e07a5f" d="M42 63h18l-2-4H44l-2 4z"></path><circle cx="51" cy="53" r="2" fill="#f2cc8f"></circle><path fill="#f4f1de" d="m60 23-2-4V5h5l-3 18z"></path><path fill="#81b29a" d="M47 19v-1a2 2 0 0 1 2-2h4a2 2 0 0 1 2 2v1"></path><path fill="#f2cc8f" d="M39 5h24l-4-4H43l-4 4z"></path><path fill="#e07a5f" d="M42 23h18l-2-4H44l-2 4z"></path><circle cx="51" cy="13" r="2" fill="#f2cc8f"></circle><path fill="#f4f1de" d="m4 23 2-4V5H1l3 18z"></path><path fill="#81b29a" d="M17 19v-1a2 2 0 0 0-2-2h-4a2 2 0 0 0-2 2v1"></path><path fill="#f2cc8f" d="M25 5H1l4-4h16l4 4z"></path><path fill="#e07a5f" d="M22 23H4l2-4h14l2 4z"></path><circle cx="13" cy="13" r="2" fill="#f2cc8f"></circle><path fill="#f4f1de" d="m4 63 2-4V45H1l3 18z"></path><path fill="#81b29a" d="M17 59v-1a2 2 0 0 0-2-2h-4a2 2 0 0 0-2 2v1"></path><path fill="#f2cc8f" d="M25 45H1l4-4h16l4 4z"></path><path fill="#e07a5f" d="M22 63H4l2-4h14l2 4z"></path><circle cx="13" cy="53" r="2" fill="#f2cc8f"></circle></svg>